# xmcd
#
# Track frame offsets:
#	150
#	10305
#	19952
#	30622
#	42607
#	53938
#	64848
#	76856
#	88883
#	100061
#	110483
#	122316
#
# Disc length: 1775 seconds
#
# Revision: 1
# Processed by: cddbd v1.4PL0 Copyright (c) Steve Scherf et al.
# Submitted via: audiograbber 1.81.03
#
DISCID=9706ed0c
DTITLE=Connie Francis - Eine Insel für Zwei
DYEAR=1900
DGENRE=Ballad
TTITLE0=Die Liebe ist ein seltsames Spiel
TTITLE1=Eine Insel für zwei
TTITLE2=Napoli
TTITLE3=Wenn du gehst
TTITLE4=Die Nacht ist mein
TTITLE5=Keine Liebe ohne Tränen
TTITLE6=Abends in der Mondscheinalle
TTITLE7=Hast du Heimweh
TTITLE8=Jede Liebe geht einmal zu Ende
TTITLE9=Der Mond war schuld daran
TTITLE10=Du mußt bleiben Angelino
TTITLE11=Es ist so schön, dass es dich gibt
EXTD=
EXTT0=
EXTT1=
EXTT2=
EXTT3=
EXTT4=
EXTT5=
EXTT6=
EXTT7=
EXTT8=
EXTT9=
EXTT10=
EXTT11=
PLAYORDER=
